<svg width="30" height="30" viewBox="0 0 30 30" fill="none" xmlns="http://www.w3.org/2000/svg">
<path d="M22.8314 14.0085V26.8655C22.8314 27.665 22.1997 28.3367 21.3787 28.3367H3.12608C2.33667 28.3367 1.67339 27.697 1.67339 26.8655V14.0085C1.67339 13.2091 2.30508 12.5373 3.12608 12.5373H21.4107C22.2001 12.5375 22.8315 13.1771 22.8315 14.0085H22.8314ZM24.979 15.5438C24.6947 15.8317 24.5052 16.2153 24.5052 16.6312V24.2432C24.5052 24.6591 24.6631 25.0427 24.979 25.3306L30 30V10.8749L24.979 15.5438ZM5.71592 11.5779C2.55788 11.5779 0 8.98728 0 5.78895C0 2.59056 2.55794 0 5.71592 0C8.87396 0 11.4318 2.59062 11.4318 5.78895C11.4316 8.98734 8.87371 11.5779 5.71592 11.5779ZM5.71592 6.39672C6.03177 6.39672 6.28445 6.14081 6.28445 5.82092C6.28445 5.50103 6.03177 5.24513 5.71592 5.24513C5.40006 5.24513 5.14739 5.50103 5.14739 5.82092C5.14739 6.14081 5.40006 6.39672 5.71592 6.39672ZM24.5371 5.82117C24.5371 9.01956 21.9791 11.6101 18.8211 11.6101C15.6631 11.6101 13.1052 9.0195 13.1052 5.82117C13.1052 2.62284 15.6632 0.0322232 18.8211 0.0322232C21.9792 0.0322232 24.5371 2.62284 24.5371 5.82117ZM19.9582 5.82117C19.9582 5.1814 19.4528 4.66981 18.8213 4.66981C18.1896 4.66981 17.6845 5.18163 17.6845 5.82117C17.6845 6.46094 18.1899 6.97254 18.8213 6.97254C19.4528 6.97254 19.9582 6.46072 19.9582 5.82117Z" fill="#940002"/>
</svg>
